<svg width="20" height="20" viewBox="0 0 20 20" fill="none" xmlns="http://www.w3.org/2000/svg">
<path opacity="0.5" fill-rule="evenodd" clip-rule="evenodd" d="M1 12.25C1.19891 12.25 1.38968 12.329 1.53033 12.4697C1.67098 12.6103 1.75 12.8011 1.75 13C1.75 14.435 1.752 15.436 1.853 16.192C1.952 16.926 2.133 17.314 2.409 17.591C2.686 17.868 3.074 18.048 3.809 18.147C4.563 18.248 5.565 18.25 7 18.25H13C14.435 18.25 15.436 18.248 16.192 18.147C16.926 18.048 17.314 17.867 17.591 17.591C17.868 17.314 18.048 16.926 18.147 16.191C18.248 15.436 18.25 14.435 18.25 13C18.25 12.8011 18.329 12.6103 18.4697 12.4697C18.6103 12.329 18.8011 12.25 19 12.25C19.1989 12.25 19.3897 12.329 19.5303 12.4697C19.671 12.6103 19.75 12.8011 19.75 13V13.055C19.75 14.422 19.75 15.525 19.634 16.392C19.512 17.292 19.254 18.05 18.652 18.652C18.05 19.254 17.292 19.512 16.392 19.634C15.525 19.75 14.422 19.75 13.055 19.75H6.945C5.578 19.75 4.475 19.75 3.608 19.634C2.708 19.512 1.95 19.254 1.348 18.652C0.746 18.05 0.488 17.292 0.367 16.392C0.25 15.525 0.25 14.422 0.25 13.055V13C0.25 12.8011 0.329018 12.6103 0.46967 12.4697C0.610322 12.329 0.801088 12.25 1 12.25Z" fill="#00B0EB"/>
<path fill-rule="evenodd" clip-rule="evenodd" d="M9.99991 0.25C10.104 0.250082 10.2069 0.271818 10.3021 0.313825C10.3973 0.355832 10.4827 0.417191 10.5529 0.494L14.5529 4.869C14.6209 4.94141 14.6739 5.02661 14.7087 5.11965C14.7435 5.2127 14.7594 5.31173 14.7557 5.411C14.7519 5.51026 14.7284 5.60779 14.6866 5.69792C14.6449 5.78804 14.5856 5.86897 14.5123 5.936C14.4389 6.00302 14.353 6.05482 14.2595 6.08837C14.166 6.12192 14.0668 6.13657 13.9676 6.13145C13.8684 6.12633 13.7712 6.10156 13.6816 6.05857C13.5921 6.01557 13.5119 5.95521 13.4459 5.881L10.7499 2.931V14C10.7499 14.1989 10.6709 14.3897 10.5302 14.5303C10.3896 14.671 10.1988 14.75 9.99991 14.75C9.80099 14.75 9.61023 14.671 9.46958 14.5303C9.32892 14.3897 9.24991 14.1989 9.24991 14V2.932L6.55391 5.882C6.41957 6.02893 6.23238 6.11648 6.03349 6.12539C5.83461 6.13429 5.64034 6.06383 5.49341 5.9295C5.34648 5.79517 5.25893 5.60797 5.25002 5.40909C5.24111 5.21021 5.31157 5.01593 5.44591 4.869L9.44591 0.494C9.51623 0.417067 9.60181 0.355635 9.6972 0.313623C9.79258 0.271612 9.89568 0.249943 9.99991 0.25Z" fill="#00B0EB"/>
</svg>
