<svg width="22" height="17" viewBox="0 0 22 17" fill="none" xmlns="http://www.w3.org/2000/svg">
<path d="M1.00021 7.99999H18.5862L13.2932 2.70699C13.1977 2.61474 13.1215 2.5044 13.0691 2.38239C13.0167 2.26039 12.9891 2.12917 12.988 1.99639C12.9868 1.86361 13.0121 1.73193 13.0624 1.60904C13.1127 1.48614 13.1869 1.37449 13.2808 1.28059C13.3747 1.1867 13.4864 1.11245 13.6093 1.06217C13.7322 1.01189 13.8638 0.986585 13.9966 0.987739C14.1294 0.988893 14.2606 1.01648 14.3826 1.06889C14.5046 1.1213 14.615 1.19748 14.7072 1.29299L21.7072 8.29299C21.8947 8.48052 22 8.73483 22 8.99999C22 9.26515 21.8947 9.51946 21.7072 9.70699L14.7072 16.707C14.5186 16.8891 14.266 16.9899 14.0038 16.9877C13.7416 16.9854 13.4908 16.8802 13.3054 16.6948C13.12 16.5094 13.0148 16.2586 13.0125 15.9964C13.0103 15.7342 13.1111 15.4816 13.2932 15.293L18.5862 9.99999H1.00021C0.734997 9.99999 0.480642 9.89463 0.293106 9.7071C0.10557 9.51956 0.000213623 9.26521 0.000213623 8.99999C0.000213623 8.73477 0.10557 8.48042 0.293106 8.29288C0.480642 8.10535 0.734997 7.99999 1.00021 7.99999Z" fill="white"/>
</svg>
