<svg width="20" height="20" viewBox="0 0 20 20" fill="none" xmlns="http://www.w3.org/2000/svg">
<path fill-rule="evenodd" clip-rule="evenodd" d="M7.99345 2.66671C7.86239 2.78531 7.72466 2.89632 7.58095 2.99921C7.33262 3.16588 7.05345 3.28088 6.76012 3.33921C6.63262 3.36421 6.49928 3.37505 6.23345 3.39588C5.56595 3.44921 5.23178 3.47588 4.95345 3.57421C4.6352 3.68658 4.34614 3.86877 4.10749 4.10742C3.86884 4.34607 3.68665 4.63513 3.57428 4.95338C3.47595 5.23171 3.44928 5.56588 3.39595 6.23338C3.38686 6.40985 3.36794 6.58568 3.33928 6.76005C3.28095 7.05338 3.16595 7.33255 2.99928 7.58088C2.92678 7.68921 2.84012 7.79088 2.66678 7.99338C2.23262 8.50338 2.01512 8.75838 1.88762 9.02505C1.59345 9.64171 1.59345 10.3584 1.88762 10.975C2.01512 11.2417 2.23262 11.4967 2.66678 12.0067C2.84012 12.2092 2.92678 12.3109 2.99928 12.4192C3.16595 12.6675 3.28095 12.9467 3.33928 13.24C3.36428 13.3675 3.37512 13.5009 3.39595 13.7667C3.44928 14.4342 3.47595 14.7684 3.57428 15.0467C3.68665 15.365 3.86884 15.654 4.10749 15.8927C4.34614 16.1313 4.6352 16.3135 4.95345 16.4259C5.23178 16.5242 5.56595 16.5509 6.23345 16.6042C6.49928 16.625 6.63262 16.6359 6.76012 16.6609C7.05345 16.7192 7.33262 16.835 7.58095 17.0009C7.68928 17.0734 7.79095 17.16 7.99345 17.3334C8.50345 17.7675 8.75845 17.985 9.02512 18.1125C9.64178 18.4067 10.3585 18.4067 10.9751 18.1125C11.2418 17.985 11.4968 17.7675 12.0068 17.3334C12.2093 17.16 12.311 17.0734 12.4193 17.0009C12.6676 16.8342 12.9468 16.7192 13.2401 16.6609C13.3676 16.6359 13.501 16.625 13.7668 16.6042C14.4343 16.5509 14.7684 16.5242 15.0468 16.4259C15.365 16.3135 15.6541 16.1313 15.8927 15.8927C16.1314 15.654 16.3136 15.365 16.426 15.0467C16.5243 14.7684 16.551 14.4342 16.6043 13.7667C16.6251 13.5009 16.636 13.3675 16.661 13.24C16.7193 12.9467 16.8351 12.6675 17.0009 12.4192C17.0734 12.3109 17.1601 12.2092 17.3334 12.0067C17.7676 11.4967 17.9851 11.2417 18.1126 10.975C18.4068 10.3584 18.4068 9.64171 18.1126 9.02505C17.9851 8.75838 17.7676 8.50338 17.3334 7.99338C17.2149 7.86232 17.1038 7.7246 17.0009 7.58088C16.8344 7.33245 16.7189 7.05345 16.661 6.76005C16.6323 6.58568 16.6134 6.40985 16.6043 6.23338C16.551 5.56588 16.5243 5.23171 16.426 4.95338C16.3136 4.63513 16.1314 4.34607 15.8927 4.10742C15.6541 3.86877 15.365 3.68658 15.0468 3.57421C14.7684 3.47588 14.4343 3.44921 13.7668 3.39588C13.5903 3.38679 13.4145 3.36787 13.2401 3.33921C12.9467 3.28129 12.6677 3.16572 12.4193 2.99921C12.2757 2.8961 12.138 2.7851 12.0068 2.66671C11.4968 2.23255 11.2418 2.01505 10.9751 1.88755C10.6707 1.74203 10.3375 1.6665 10.0001 1.6665C9.66269 1.6665 9.32955 1.74203 9.02512 1.88755C8.75845 2.01505 8.50345 2.23255 7.99345 2.66671ZM13.1926 6.80838C13.3195 6.93555 13.3908 7.10788 13.3908 7.28755C13.3908 7.46721 13.3195 7.63954 13.1926 7.76671L7.76678 13.1934C7.70496 13.261 7.63007 13.3155 7.54662 13.3534C7.46318 13.3913 7.37292 13.4119 7.28129 13.414C7.18966 13.4161 7.09856 13.3995 7.01349 13.3654C6.92842 13.3313 6.85115 13.2803 6.78634 13.2155C6.72153 13.1507 6.67053 13.0734 6.63641 12.9883C6.6023 12.9033 6.58577 12.8122 6.58784 12.7205C6.5899 12.6289 6.61052 12.5386 6.64843 12.4552C6.68635 12.3718 6.74079 12.2969 6.80845 12.235L12.2335 6.80921C12.3606 6.6823 12.533 6.61102 12.7126 6.61102C12.8923 6.61102 13.0646 6.6823 13.1918 6.80921L13.1926 6.80838ZM13.1651 12.2609C13.1651 12.5007 13.0699 12.7307 12.9003 12.9002C12.7307 13.0698 12.5008 13.165 12.261 13.165C12.0212 13.165 11.7912 13.0698 11.6216 12.9002C11.452 12.7307 11.3568 12.5007 11.3568 12.2609C11.3568 12.0211 11.452 11.7911 11.6216 11.6215C11.7912 11.452 12.0212 11.3567 12.261 11.3567C12.5008 11.3567 12.7307 11.452 12.9003 11.6215C13.0699 11.7911 13.1651 12.0211 13.1651 12.2609ZM7.74012 8.64421C7.85885 8.64421 7.97643 8.62083 8.08613 8.57539C8.19583 8.52995 8.2955 8.46335 8.37946 8.37939C8.46342 8.29543 8.53002 8.19576 8.57546 8.08606C8.6209 7.97636 8.64428 7.85878 8.64428 7.74005C8.64428 7.62131 8.6209 7.50374 8.57546 7.39404C8.53002 7.28434 8.46342 7.18466 8.37946 7.10071C8.2955 7.01675 8.19583 6.95015 8.08613 6.90471C7.97643 6.85927 7.85885 6.83588 7.74012 6.83588C7.50032 6.83588 7.27034 6.93114 7.10077 7.10071C6.93121 7.27027 6.83595 7.50025 6.83595 7.74005C6.83595 7.97985 6.93121 8.20983 7.10077 8.37939C7.27034 8.54895 7.50032 8.64421 7.74012 8.64421Z" fill="white"/>
</svg>
