<svg width="20" height="20"
    viewBox="0 0 25 22" fill="none" xmlns="http://www.w3.org/2000/svg">
<path d="M1.56883 4.25003H1.68021C1.85143 4.89322 2.24189 5.46353 2.78992 5.87086C3.33795 6.27819 4.0123 6.49933 4.70644 6.49933C5.40058 6.49933 6.07493 6.27819 6.62296 5.87086C7.17099 5.46353 7.56146 4.89322 7.73267 4.25003H23.5321C23.7402 4.25003 23.9397 4.17101 24.0868 4.03036C24.2339 3.88971 24.3165 3.69894 24.3165 3.50003C24.3165 3.30112 24.2339 3.11035 24.0868 2.9697C23.9397 2.82905 23.7402 2.75003 23.5321 2.75003H7.73267C7.56146 2.10684 7.17099 1.53653 6.62296 1.1292C6.07493 0.721867 5.40058 0.500732 4.70644 0.500732C4.0123 0.500732 3.33795 0.721867 2.78992 1.1292C2.24189 1.53653 1.85143 2.10684 1.68021 2.75003H1.56883C1.36079 2.75003 1.16127 2.82905 1.01417 2.9697C0.867066 3.11035 0.784424 3.30112 0.784424 3.50003C0.784424 3.69894 0.867066 3.88971 1.01417 4.03036C1.16127 4.17101 1.36079 4.25003 1.56883 4.25003ZM4.70644 2.00003C5.01672 2.00003 5.32004 2.088 5.57802 2.25283C5.83601 2.41765 6.03709 2.65192 6.15583 2.92601C6.27457 3.20009 6.30564 3.50169 6.24511 3.79267C6.18457 4.08364 6.03516 4.35091 5.81576 4.56069C5.59635 4.77047 5.31682 4.91333 5.0125 4.97121C4.70818 5.02909 4.39275 4.99938 4.10609 4.88585C3.81942 4.77232 3.57441 4.58006 3.40203 4.33339C3.22964 4.08671 3.13763 3.7967 3.13763 3.50003C3.13763 3.10221 3.30292 2.72068 3.59713 2.43937C3.89134 2.15807 4.29037 2.00003 4.70644 2.00003ZM23.5321 10.25H23.4207C23.2495 9.60684 22.8591 9.03653 22.311 8.6292C21.763 8.22187 21.0887 8.00073 20.3945 8.00073C19.7004 8.00073 19.026 8.22187 18.478 8.6292C17.93 9.03653 17.5395 9.60684 17.3683 10.25H1.56883C1.36079 10.25 1.16127 10.329 1.01417 10.4697C0.867066 10.6104 0.784424 10.8011 0.784424 11C0.784424 11.1989 0.867066 11.3897 1.01417 11.5304C1.16127 11.671 1.36079 11.75 1.56883 11.75H17.3683C17.5395 12.3932 17.93 12.9635 18.478 13.3709C19.026 13.7782 19.7004 13.9993 20.3945 13.9993C21.0887 13.9993 21.763 13.7782 22.311 13.3709C22.8591 12.9635 23.2495 12.3932 23.4207 11.75H23.5321C23.7402 11.75 23.9397 11.671 24.0868 11.5304C24.2339 11.3897 24.3165 11.1989 24.3165 11C24.3165 10.8011 24.2339 10.6104 24.0868 10.4697C23.9397 10.329 23.7402 10.25 23.5321 10.25ZM20.3945 12.5C20.0842 12.5 19.7809 12.4121 19.5229 12.2472C19.2649 12.0824 19.0639 11.8481 18.9451 11.5741C18.8264 11.3 18.7953 10.9984 18.8559 10.7074C18.9164 10.4164 19.0658 10.1491 19.2852 9.93937C19.5046 9.72959 19.7841 9.58673 20.0885 9.52885C20.3928 9.47097 20.7082 9.50068 20.9949 9.61421C21.2815 9.72774 21.5265 9.92 21.6989 10.1667C21.8713 10.4133 21.9633 10.7034 21.9633 11C21.9633 11.3979 21.798 11.7794 21.5038 12.0607C21.2096 12.342 20.8106 12.5 20.3945 12.5ZM23.5321 17.75H15.5767C15.4055 17.1068 15.015 16.5365 14.467 16.1292C13.919 15.7219 13.2446 15.5007 12.5505 15.5007C11.8563 15.5007 11.182 15.7219 10.634 16.1292C10.0859 16.5365 9.69546 17.1068 9.52425 17.75H1.56883C1.36079 17.75 1.16127 17.829 1.01417 17.9697C0.867066 18.1104 0.784424 18.3011 0.784424 18.5C0.784424 18.6989 0.867066 18.8897 1.01417 19.0304C1.16127 19.171 1.36079 19.25 1.56883 19.25H9.52425C9.69546 19.8932 10.0859 20.4635 10.634 20.8709C11.182 21.2782 11.8563 21.4993 12.5505 21.4993C13.2446 21.4993 13.919 21.2782 14.467 20.8709C15.015 20.4635 15.4055 19.8932 15.5767 19.25H23.5321C23.7402 19.25 23.9397 19.171 24.0868 19.0304C24.2339 18.8897 24.3165 18.6989 24.3165 18.5C24.3165 18.3011 24.2339 18.1104 24.0868 17.9697C23.9397 17.829 23.7402 17.75 23.5321 17.75ZM12.5505 20C12.2402 20 11.9369 19.9121 11.6789 19.7472C11.4209 19.5824 11.2198 19.3481 11.1011 19.0741C10.9824 18.8 10.9513 18.4984 11.0118 18.2074C11.0723 17.9164 11.2218 17.6492 11.4412 17.4394C11.6606 17.2296 11.9401 17.0867 12.2444 17.0289C12.5487 16.971 12.8642 17.0007 13.1508 17.1142C13.4375 17.2277 13.6825 17.42 13.8549 17.6667C14.0273 17.9133 14.1193 18.2034 14.1193 18.5C14.1193 18.8979 13.954 19.2794 13.6598 19.5607C13.3656 19.842 12.9666 20 12.5505 20Z" fill="#DDDDDD"/>
</svg>
