<svg width="23" height="23" viewBox="0 0 22 22" fill="none" xmlns="http://www.w3.org/2000/svg">
<path fill-rule="evenodd" clip-rule="evenodd" d="M16.0001 10.7498C16.199 10.7498 16.3898 10.6708 16.5304 10.5302C16.6711 10.3895 16.7501 10.1987 16.7501 9.99983V2.80983L18.4701 4.52983C18.5388 4.60352 18.6216 4.66262 18.7136 4.70361C18.8056 4.7446 18.9049 4.76664 19.0056 4.76842C19.1063 4.7702 19.2063 4.75167 19.2997 4.71395C19.3931 4.67623 19.4779 4.62009 19.5491 4.54887C19.6203 4.47765 19.6765 4.39281 19.7142 4.29943C19.7519 4.20604 19.7705 4.10601 19.7687 4.00531C19.7669 3.9046 19.7449 3.80529 19.7039 3.71329C19.6629 3.62129 19.6038 3.53849 19.5301 3.46983L16.5301 0.469828C16.3895 0.329378 16.1988 0.250488 16.0001 0.250488C15.8013 0.250488 15.6107 0.329378 15.4701 0.469828L12.4701 3.46983C12.3376 3.612 12.2655 3.80005 12.2689 3.99435C12.2723 4.18865 12.3511 4.37404 12.4885 4.51145C12.6259 4.64886 12.8113 4.72758 13.0056 4.731C13.1999 4.73443 13.3879 4.66231 13.5301 4.52983L15.2501 2.80983V9.99983C15.2501 10.4138 15.5861 10.7498 16.0001 10.7498Z" fill="#9185BE"/>
<path fill-rule="evenodd" clip-rule="evenodd" d="M11 0.25H10.943C8.634 0.25 6.825 0.25 5.413 0.44C3.969 0.634 2.829 1.04 1.934 1.934C1.039 2.829 0.634 3.969 0.44 5.414C0.25 6.825 0.25 8.634 0.25 10.943V11.057C0.25 13.366 0.25 15.175 0.44 16.587C0.634 18.031 1.04 19.171 1.934 20.066C2.829 20.961 3.969 21.366 5.414 21.56C6.825 21.75 8.634 21.75 10.943 21.75H11.057C13.366 21.75 15.175 21.75 16.587 21.56C18.031 21.366 19.171 20.96 20.066 20.066C20.961 19.171 21.366 18.031 21.56 16.586C21.75 15.175 21.75 13.366 21.75 11.057V11C21.75 10.8011 21.671 10.6103 21.5303 10.4697C21.3897 10.329 21.1989 10.25 21 10.25C20.8011 10.25 20.6103 10.329 20.4697 10.4697C20.329 10.6103 20.25 10.8011 20.25 11C20.25 13.378 20.248 15.086 20.074 16.386L20.052 16.538L17.278 14.041C16.6469 13.4732 15.8419 13.1363 14.9945 13.0854C14.1471 13.0346 13.3075 13.2727 12.613 13.761L12.315 13.971C12.0742 14.1399 11.7815 14.2184 11.4885 14.1928C11.1955 14.1672 10.9209 14.0391 10.713 13.831L6.423 9.541C5.87576 8.99398 5.14108 8.67539 4.36774 8.64977C3.59441 8.62414 2.84024 8.8934 2.258 9.403L1.751 9.846C1.756 8.054 1.781 6.693 1.926 5.614C2.098 4.335 2.426 3.564 2.995 2.994C3.565 2.425 4.335 2.098 5.614 1.926C6.914 1.752 8.622 1.75 11 1.75C11.1989 1.75 11.3897 1.67098 11.5303 1.53033C11.671 1.38968 11.75 1.19891 11.75 1C11.75 0.801088 11.671 0.610322 11.5303 0.46967C11.3897 0.329018 11.1989 0.25 11 0.25ZM1.926 16.386C2.098 17.665 2.426 18.436 2.995 19.006C3.565 19.575 4.335 19.902 5.614 20.074C6.914 20.248 8.622 20.25 11 20.25C13.378 20.25 15.086 20.248 16.386 20.074C17.665 19.902 18.436 19.574 19.006 19.005C19.2562 18.7541 19.4606 18.4613 19.61 18.14C19.5702 18.1158 19.5327 18.0881 19.498 18.057L16.275 15.157C15.8965 14.8158 15.4134 14.6131 14.9047 14.5822C14.3961 14.5514 13.892 14.6941 13.475 14.987L13.178 15.197C12.6484 15.5693 12.0044 15.7429 11.3594 15.6871C10.7144 15.6313 10.1098 15.3497 9.652 14.892L5.362 10.602C5.08386 10.3239 4.71041 10.162 4.31732 10.149C3.92423 10.136 3.5409 10.2729 3.245 10.532L1.75 11.84C1.753 13.788 1.773 15.245 1.926 16.386Z" fill="#9185BE"/>
</svg>
