<svg width="20" height="20" viewBox="0 0 20 20" fill="none" xmlns="http://www.w3.org/2000/svg">
<g clip-path="url(#clip0_686_625)">
<path opacity="0.5" d="M4.1665 7.09592C4.1665 4.09758 6.77817 1.66675 9.99984 1.66675C13.2215 1.66675 15.8332 4.09758 15.8332 7.09592C15.8332 10.0709 13.9715 13.5417 11.0665 14.7834C10.7291 14.9266 10.3663 15.0004 9.99984 15.0004C9.63333 15.0004 9.27057 14.9266 8.93317 14.7834C6.02817 13.5417 4.1665 10.0701 4.1665 7.09592Z" stroke="white" stroke-width="1.5"/>
<path d="M11.6663 7.50016C11.6663 7.94219 11.4907 8.36611 11.1782 8.67867C10.8656 8.99123 10.4417 9.16683 9.99967 9.16683C9.55765 9.16683 9.13372 8.99123 8.82116 8.67867C8.5086 8.36611 8.33301 7.94219 8.33301 7.50016C8.33301 7.05814 8.5086 6.63421 8.82116 6.32165C9.13372 6.00909 9.55765 5.8335 9.99967 5.8335C10.4417 5.8335 10.8656 6.00909 11.1782 6.32165C11.4907 6.63421 11.6663 7.05814 11.6663 7.50016Z" stroke="white" stroke-width="1.5"/>
<path d="M17.4665 12.9167C18.0215 13.4184 18.3332 13.9851 18.3332 14.5834C18.3332 16.6542 14.6023 18.3334 9.99984 18.3334C5.39734 18.3334 1.6665 16.6542 1.6665 14.5834C1.6665 13.9851 1.97817 13.4184 2.53317 12.9167" stroke="white" stroke-width="1.5" stroke-linecap="round"/>
</g>
<defs>
<clipPath id="clip0_686_625">
<rect width="20" height="20" fill="white"/>
</clipPath>
</defs>
</svg>
