<svg width="12" height="8" viewBox="0 0 12 8" fill="none" xmlns="http://www.w3.org/2000/svg">
<path d="M7.47 1.52985C7.33752 1.38767 7.2654 1.19963 7.26883 1.00532C7.27225 0.811024 7.35097 0.625639 7.48838 0.488226C7.62579 0.350812 7.81118 0.2721 8.00548 0.268672C8.19978 0.265243 8.38783 0.337367 8.53 0.469847L11.53 3.46985C11.6705 3.61047 11.7493 3.8011 11.7493 3.99985C11.7493 4.1986 11.6705 4.38922 11.53 4.52985L8.53 7.52985C8.46134 7.60353 8.37854 7.66264 8.28654 7.70363C8.19454 7.74462 8.09522 7.76666 7.99452 7.76844C7.89382 7.77022 7.79379 7.75169 7.7004 7.71397C7.60702 7.67625 7.52218 7.6201 7.45096 7.54889C7.37974 7.47767 7.3236 7.39283 7.28588 7.29945C7.24816 7.20606 7.22963 7.10603 7.23141 7.00533C7.23319 6.90462 7.25523 6.80531 7.29622 6.71331C7.33721 6.62131 7.39631 6.53851 7.47 6.46985L9.19 4.74985H1C0.801088 4.74985 0.610323 4.67083 0.46967 4.53018C0.329018 4.38952 0.25 4.19876 0.25 3.99985C0.25 3.80094 0.329018 3.61017 0.46967 3.46952C0.610323 3.32887 0.801088 3.24985 1 3.24985H9.19L7.47 1.52985Z" fill="#9185BE"/>
</svg>
