<svg width="20" height="18" viewBox="0 0 20 18" fill="none" xmlns="http://www.w3.org/2000/svg">
<path d="M8.75 5.25V4H1.25C0.56125 4 0 4.56125 0 5.25V7.75H9.01375C8.84 6.98625 8.75 6.16375 8.75 5.25ZM19.9487 10.25C19.0962 11.5637 17.7962 12.6812 15.9338 13.7512C15.6475 13.915 15.325 14 15 14C14.675 14 14.3525 13.915 14.07 13.7537C12.2075 12.6812 10.9075 11.5625 10.0538 10.25H0V16.5C0 17.19 0.56125 17.75 1.25 17.75H18.75C19.44 17.75 20 17.19 20 16.5V10.25H19.9487ZM5.625 14H3.125C2.78 14 2.5 13.72 2.5 13.375C2.5 13.03 2.78 12.75 3.125 12.75H5.625C5.97 12.75 6.25 13.03 6.25 13.375C6.25 13.72 5.97 14 5.625 14Z" fill="#9B9B9B"/>
<path d="M19.6212 2.17611L15.2462 0.301113C15.1682 0.267711 15.0842 0.250488 14.9994 0.250488C14.9145 0.250488 14.8305 0.267711 14.7525 0.301113L10.3775 2.17611C10.1488 2.27361 10 2.49986 10 2.74986V5.24986C10 8.68861 11.2713 10.6986 14.6888 12.6674C14.785 12.7224 14.8925 12.7499 15 12.7499C15.1075 12.7499 15.215 12.7224 15.3112 12.6674C18.7287 10.7036 20 8.69361 20 5.24986V2.74986C20 2.49986 19.8512 2.27361 19.6212 2.17611ZM17.3637 5.01611L14.8637 8.14111C14.7437 8.28861 14.5637 8.37486 14.375 8.37486H14.3488C14.2505 8.37057 14.1545 8.34322 14.0688 8.29501C13.983 8.24681 13.9098 8.1791 13.855 8.09736L12.605 6.22236C12.4137 5.93486 12.4912 5.54736 12.7787 5.35611C13.0637 5.16611 13.4525 5.24111 13.645 5.52986L14.4212 6.69361L16.3863 4.23611C16.6025 3.96736 16.9963 3.92486 17.265 4.13861C17.535 4.35236 17.5775 4.74611 17.3637 5.01611Z" fill="#9B9B9B"/>
</svg>
