<svg width="20" height="20" viewBox="0 0 20 20" fill="none" xmlns="http://www.w3.org/2000/svg">
<path d="M13.6374 3.4375H17.3874C17.0119 7.02634 15.3195 10.3486 12.6374 12.7625C9.93357 15.1922 6.42243 16.5289 2.78736 16.5125H1.82486V13L4.99986 11.9L6.04986 13.675L6.78736 15L8.12486 14.225C10.5196 12.835 12.5603 10.9098 14.0874 8.6L14.9999 7.1625L13.4749 6.3625L12.2249 5.7125L13.5874 3.4375M13.5874 1.875C13.3178 1.87702 13.0533 1.94818 12.8191 2.08169C12.5849 2.21519 12.3889 2.40657 12.2499 2.6375L10.9374 4.9125C10.826 5.09433 10.7534 5.29717 10.724 5.50835C10.6947 5.71952 10.7092 5.93448 10.7667 6.13979C10.8242 6.3451 10.9234 6.53635 11.0581 6.70156C11.1929 6.86678 11.3603 7.00242 11.5499 7.1L12.7999 7.75C11.4044 9.85717 9.53875 11.6116 7.34986 12.875L6.24986 11.1125C6.12113 10.8906 5.93975 10.7039 5.72175 10.5687C5.50375 10.4336 5.25582 10.3542 4.99986 10.3375C4.82528 10.3371 4.65193 10.3667 4.48736 10.425L1.24986 11.525C0.955054 11.6416 0.702703 11.8452 0.526324 12.1087C0.349944 12.3721 0.257882 12.683 0.262363 13V16.5625C0.262363 16.9769 0.426983 17.3743 0.720009 17.6674C1.01303 17.9604 1.41046 18.125 1.82486 18.125H2.76236C6.77421 18.1261 10.6446 16.643 13.6286 13.9614C16.6125 11.2798 18.499 7.58918 18.9249 3.6C18.9457 3.38197 18.9209 3.16198 18.8519 2.95408C18.7829 2.74619 18.6714 2.55497 18.5243 2.39264C18.3773 2.2303 18.198 2.10042 17.9979 2.01129C17.7979 1.92216 17.5814 1.87574 17.3624 1.875H13.5874Z" fill="white"/>
</svg>
