<svg width="20" height="20" viewBox="0 0 19 18" fill="none" xmlns="http://www.w3.org/2000/svg">
<path d="M18.6284 16.29L15.0776 12.9C16.2233 11.5025 16.8449 9.77666 16.8426 8C16.8426 6.41775 16.3526 4.87103 15.4345 3.55544C14.5165 2.23985 13.2117 1.21447 11.685 0.608967C10.1584 0.00346625 8.47855 -0.15496 6.85788 0.153721C5.23722 0.462403 3.74854 1.22433 2.58011 2.34315C1.41168 3.46197 0.615965 4.88743 0.293595 6.43928C-0.0287753 7.99113 0.136677 9.59966 0.769028 11.0615C1.40138 12.5233 2.47223 13.7727 3.84616 14.6518C5.22009 15.5308 6.8354 16 8.48781 16C10.3433 16.0022 12.1456 15.407 13.6051 14.31L17.1454 17.71C17.2425 17.8037 17.358 17.8781 17.4853 17.9289C17.6125 17.9797 17.749 18.0058 17.8869 18.0058C18.0248 18.0058 18.1613 17.9797 18.2885 17.9289C18.4158 17.8781 18.5313 17.8037 18.6284 17.71C18.7263 17.617 18.804 17.5064 18.857 17.3846C18.91 17.2627 18.9373 17.132 18.9373 17C18.9373 16.868 18.91 16.7373 18.857 16.6154C18.804 16.4936 18.7263 16.383 18.6284 16.29ZM2.22175 8C2.22175 6.81332 2.58925 5.65328 3.27777 4.66658C3.96629 3.67989 4.94492 2.91085 6.08989 2.45673C7.23487 2.0026 8.49476 1.88378 9.71026 2.11529C10.9258 2.3468 12.0423 2.91825 12.9186 3.75736C13.7949 4.59648 14.3917 5.66558 14.6335 6.82946C14.8753 7.99335 14.7512 9.19975 14.2769 10.2961C13.8026 11.3925 12.9995 12.3295 11.9691 12.9888C10.9386 13.6481 9.72712 14 8.48781 14C6.82595 14 5.23215 13.3679 4.05704 12.2426C2.88192 11.1174 2.22175 9.5913 2.22175 8Z" fill="#E4E4E4"/>
</svg>
