<svg width="24" height="19" viewBox="0 0 24 19" fill="none" xmlns="http://www.w3.org/2000/svg">
<path d="M23.3829 7.77954C22.0073 6.3251 20.4779 5.11082 18.8259 4.16019L22.2685 1.20081C22.4973 1.00408 22.4973 0.685181 22.2685 0.488456C22.0397 0.291771 21.6686 0.291771 21.4398 0.488456L17.8041 3.6139C14.1685 1.82979 9.6862 1.85062 6.07036 3.6764C4.07306 4.68493 2.23833 6.06543 0.617063 7.77954C-0.224812 8.66968 -0.224812 9.96181 0.617063 10.852C1.99266 12.3064 3.52205 13.5206 5.17406 14.4713L1.73152 17.4307C1.50272 17.6274 1.50272 17.9463 1.73152 18.143C1.84594 18.2414 1.99589 18.2906 2.14584 18.2906C2.2958 18.2906 2.44575 18.2414 2.56017 18.143L6.19589 15.0176C7.99275 15.8994 9.99638 16.3403 12 16.3403C14.0505 16.3403 16.1009 15.8786 17.9296 14.9551C19.9269 13.9466 21.7617 12.5661 23.3829 10.852C24.2249 9.96182 24.2249 8.66968 23.3829 7.77954ZM1.5263 10.2164C1.0327 9.69457 1.0327 8.93697 1.5263 8.41509C3.05902 6.79455 4.78758 5.4925 6.66389 4.54506C8.30958 3.71407 10.1548 3.29854 12 3.29854C13.699 3.29854 15.3981 3.65085 16.9415 4.35547L15.2434 5.81519C14.353 5.20422 13.2252 4.83862 12 4.83862C9.1282 4.83862 6.79186 6.84705 6.79186 9.31575C6.79186 10.369 7.21716 11.3385 7.92788 12.104L6.01992 13.7442C4.39102 12.834 2.88202 11.6498 1.5263 10.2164ZM16.0362 9.31575C16.0362 11.229 14.2256 12.7855 12 12.7855C11.0981 12.7855 10.2643 12.5298 9.59156 12.0985L15.237 7.24534C15.7389 7.82367 16.0362 8.54041 16.0362 9.31575ZM7.96378 9.31575C7.96378 7.40249 9.77442 5.84602 12 5.84602C12.9019 5.84602 13.7357 6.10166 14.4084 6.53303L8.76295 11.3861C8.26111 10.8078 7.96378 10.0911 7.96378 9.31575ZM22.4737 10.2164C20.941 11.837 19.2125 13.139 17.3361 14.0865C14.175 15.6826 10.2779 15.7458 7.05848 14.2761L8.75653 12.8163C9.64697 13.4273 10.7747 13.7929 12 13.7929C14.8718 13.7929 17.2081 11.7845 17.2081 9.31579C17.2081 8.26249 16.7828 7.29301 16.0721 6.52755L17.98 4.88737C19.609 5.79742 21.1179 6.98168 22.4737 8.41509C22.9673 8.93697 22.9673 9.69453 22.4737 10.2164Z" fill="#C3C4D1"/>
</svg>
