<svg width="18" height="18" viewBox="0 0 18 18" fill="none" xmlns="http://www.w3.org/2000/svg">
<path d="M6.62753 3.50675C7.68337 1.61341 8.21087 0.666748 9.00003 0.666748C9.7892 0.666748 10.3167 1.61341 11.3725 3.50675L11.6459 3.99675C11.9459 4.53508 12.0959 4.80425 12.3292 4.98175C12.5625 5.15925 12.8542 5.22508 13.4375 5.35675L13.9675 5.47675C16.0175 5.94091 17.0417 6.17258 17.2859 6.95675C17.5292 7.74008 16.8309 8.55758 15.4334 10.1917L15.0717 10.6142C14.675 11.0784 14.4759 11.3109 14.3867 11.5976C14.2975 11.8851 14.3275 12.1951 14.3875 12.8142L14.4425 13.3784C14.6534 15.5592 14.7592 16.6492 14.1209 17.1334C13.4825 17.6184 12.5225 17.1759 10.6042 16.2926L10.1067 16.0642C9.5617 15.8126 9.2892 15.6876 9.00003 15.6876C8.71087 15.6876 8.43837 15.8126 7.89253 16.0642L7.3967 16.2926C5.47753 17.1759 4.51753 17.6176 3.88003 17.1342C3.24087 16.6492 3.3467 15.5592 3.55753 13.3784L3.61253 12.8151C3.67253 12.1951 3.70253 11.8851 3.61253 11.5984C3.5242 11.3109 3.32503 11.0784 2.92837 10.6151L2.5667 10.1917C1.1692 8.55842 0.470866 7.74092 0.7142 6.95675C0.958366 6.17258 1.98337 5.94008 4.03337 5.47675L4.56337 5.35675C5.14587 5.22508 5.4367 5.15925 5.67087 4.98175C5.9042 4.80425 6.0542 4.53508 6.3542 3.99675L6.62753 3.50675Z" fill="white"/>
</svg>
