<svg width="24" height="21" viewBox="0 0 24 21" fill="none" xmlns="http://www.w3.org/2000/svg">
<g clip-path="url(#clip0_73_861)">
<path d="M23.3829 8.77954C22.0073 7.3251 20.4779 6.11082 18.8259 5.16019L22.2685 2.20081C22.4973 2.00408 22.4973 1.68518 22.2685 1.48846C22.0397 1.29177 21.6686 1.29177 21.4398 1.48846L17.8041 4.6139C14.1685 2.82979 9.6862 2.85062 6.07036 4.6764C4.07306 5.68493 2.23833 7.06543 0.617063 8.77954C-0.224812 9.66968 -0.224812 10.9618 0.617063 11.852C1.99266 13.3064 3.52205 14.5206 5.17406 15.4713L1.73152 18.4307C1.50272 18.6274 1.50272 18.9463 1.73152 19.143C1.84594 19.2414 1.99589 19.2906 2.14584 19.2906C2.2958 19.2906 2.44575 19.2414 2.56017 19.143L6.19589 16.0176C7.99275 16.8994 9.99638 17.3403 12 17.3403C14.0505 17.3403 16.1009 16.8786 17.9296 15.9551C19.9269 14.9466 21.7617 13.5661 23.3829 11.852C24.2249 10.9618 24.2249 9.66968 23.3829 8.77954ZM1.5263 11.2164C1.0327 10.6946 1.0327 9.93697 1.5263 9.41509C3.05902 7.79455 4.78758 6.4925 6.66389 5.54506C8.30958 4.71407 10.1548 4.29854 12 4.29854C13.699 4.29854 15.3981 4.65085 16.9415 5.35547L15.2434 6.81519C14.353 6.20422 13.2252 5.83862 12 5.83862C9.1282 5.83862 6.79186 7.84705 6.79186 10.3158C6.79186 11.369 7.21716 12.3385 7.92788 13.104L6.01992 14.7442C4.39102 13.834 2.88202 12.6498 1.5263 11.2164ZM16.0362 10.3158C16.0362 12.229 14.2256 13.7855 12 13.7855C11.0981 13.7855 10.2643 13.5298 9.59156 13.0985L15.237 8.24534C15.7389 8.82367 16.0362 9.54041 16.0362 10.3158ZM7.96378 10.3158C7.96378 8.40249 9.77442 6.84602 12 6.84602C12.9019 6.84602 13.7357 7.10166 14.4084 7.53303L8.76295 12.3861C8.26111 11.8078 7.96378 11.0911 7.96378 10.3158ZM22.4737 11.2164C20.941 12.837 19.2125 14.139 17.3361 15.0865C14.175 16.6826 10.2779 16.7458 7.05848 15.2761L8.75653 13.8163C9.64697 14.4273 10.7747 14.7929 12 14.7929C14.8718 14.7929 17.2081 12.7845 17.2081 10.3158C17.2081 9.26249 16.7828 8.29301 16.0721 7.52755L17.98 5.88737C19.609 6.79742 21.1179 7.98168 22.4737 9.41509C22.9673 9.93697 22.9673 10.6945 22.4737 11.2164Z" fill="#C3C4D1"/>
</g>
<defs>
<clipPath id="clip0_73_861">
<rect width="24" height="20.6316" fill="white"/>
</clipPath>
</defs>
</svg>
